<svg xmlns="http://www.w3.org/2000/svg" xmlns:xlink="http://www.w3.org/1999/xlink" width="500" zoomAndPan="magnify" viewBox="0 0 375 374.999991" height="500" preserveAspectRatio="xMidYMid meet" version="1.2"><defs/><g id="73ba2ce986"><g style="fill:#211c01;fill-opacity:1;"><g transform="translate(57.154845, 194.075641)"><path style="stroke:none" d="M 47.71875 -30.59375 C 47.414062 -26.769531 46.804688 -22.929688 45.890625 -19.078125 C 44.984375 -15.222656 43.847656 -11.503906 42.484375 -7.921875 C 41.117188 -4.335938 39.523438 -0.984375 37.703125 2.140625 C 35.878906 5.265625 33.859375 7.976562 31.640625 10.28125 C 29.429688 12.59375 27.066406 14.414062 24.546875 15.75 C 22.023438 17.082031 19.398438 17.75 16.671875 17.75 C 16.117188 17.75 15.28125 17.644531 14.15625 17.4375 C 13.03125 17.226562 11.832031 16.742188 10.5625 15.984375 C 9.289062 15.222656 8 14.113281 6.6875 12.65625 C 5.382812 11.195312 4.25 9.238281 3.28125 6.78125 C 2.3125 4.320312 1.613281 1.273438 1.1875 -2.359375 C 0.757812 -6.003906 0.757812 -10.410156 1.1875 -15.578125 C 1.914062 -23.710938 3.414062 -31.101562 5.6875 -37.75 C 7.96875 -44.394531 10.578125 -50.082031 13.515625 -54.8125 C 16.460938 -59.550781 19.515625 -63.210938 22.671875 -65.796875 C 25.828125 -68.378906 28.617188 -69.671875 31.046875 -69.671875 C 32.023438 -69.671875 32.832031 -69.472656 33.46875 -69.078125 C 34.101562 -68.679688 34.601562 -68.175781 34.96875 -67.5625 C 35.394531 -67.6875 35.878906 -67.78125 36.421875 -67.84375 C 36.972656 -67.90625 37.582031 -67.9375 38.25 -67.9375 C 40.007812 -67.9375 41.570312 -67.023438 42.9375 -65.203125 C 44.300781 -63.378906 45.421875 -60.828125 46.296875 -57.546875 C 47.179688 -54.273438 47.757812 -50.347656 48.03125 -45.765625 C 48.3125 -41.179688 48.207031 -36.125 47.71875 -30.59375 Z M 16.9375 12.46875 C 19.300781 12.46875 21.726562 11.253906 24.21875 8.828125 C 26.707031 6.398438 29.015625 3.109375 31.140625 -1.046875 C 33.265625 -5.203125 35.085938 -10.039062 36.609375 -15.5625 C 38.128906 -21.09375 39.160156 -26.953125 39.703125 -33.140625 C 39.828125 -34.785156 39.914062 -36.671875 39.96875 -38.796875 C 40.03125 -40.921875 40.03125 -43.070312 39.96875 -45.25 C 39.914062 -47.4375 39.78125 -49.609375 39.5625 -51.765625 C 39.351562 -53.921875 39.066406 -55.816406 38.703125 -57.453125 C 38.335938 -59.097656 37.878906 -60.4375 37.328125 -61.46875 C 36.785156 -62.5 36.148438 -63.015625 35.421875 -63.015625 C 34.628906 -62.953125 33.84375 -62.707031 33.0625 -62.28125 C 32.394531 -61.914062 31.617188 -61.320312 30.734375 -60.5 C 29.847656 -59.6875 28.984375 -58.550781 28.140625 -57.09375 C 27.953125 -57.21875 27.8125 -57.398438 27.71875 -57.640625 C 27.632812 -57.890625 27.53125 -58.132812 27.40625 -58.375 C 27.289062 -58.613281 27.203125 -58.882812 27.140625 -59.1875 C 27.015625 -59.375 26.953125 -59.601562 26.953125 -59.875 C 26.953125 -60.144531 26.921875 -60.460938 26.859375 -60.828125 C 25.648438 -59.492188 24.207031 -57.597656 22.53125 -55.140625 C 20.863281 -52.679688 19.195312 -49.628906 17.53125 -45.984375 C 15.863281 -42.347656 14.34375 -38.054688 12.96875 -33.109375 C 11.601562 -28.160156 10.648438 -22.523438 10.109375 -16.203125 C 9.617188 -10.617188 9.492188 -5.972656 9.734375 -2.265625 C 9.984375 1.429688 10.457031 4.367188 11.15625 6.546875 C 11.851562 8.734375 12.71875 10.265625 13.75 11.140625 C 14.78125 12.023438 15.84375 12.46875 16.9375 12.46875 Z M 16.9375 12.46875 "/></g></g><g style="fill:#211c01;fill-opacity:1;"><g transform="translate(106.333293, 194.075641)"><path style="stroke:none" d="M -6.5625 38.890625 C -6.976562 38.703125 -7.398438 38.425781 -7.828125 38.0625 C -8.191406 37.757812 -8.554688 37.378906 -8.921875 36.921875 C -9.285156 36.472656 -9.585938 35.910156 -9.828125 35.234375 C -8.128906 28.742188 -6.6875 23.097656 -5.5 18.296875 C -4.320312 13.503906 -3.304688 9.5 -2.453125 6.28125 C -1.546875 2.519531 -0.757812 -0.632812 -0.09375 -3.1875 C 0.507812 -5.613281 1.117188 -8.039062 1.734375 -10.46875 C 2.210938 -12.59375 2.738281 -14.867188 3.3125 -17.296875 C 3.894531 -19.722656 4.429688 -22 4.921875 -24.125 C 5.523438 -26.5 5.882812 -28.398438 6 -29.828125 C 6.125 -31.253906 5.671875 -32.484375 4.640625 -33.515625 C 5.367188 -34.117188 6.113281 -34.585938 6.875 -34.921875 C 7.632812 -35.253906 8.316406 -35.484375 8.921875 -35.609375 C 9.585938 -35.785156 10.253906 -35.84375 10.921875 -35.78125 C 12.566406 -35.664062 13.585938 -35.148438 13.984375 -34.234375 C 14.378906 -33.328125 14.421875 -31.875 14.109375 -29.875 C 14.054688 -29.5625 14.015625 -29.300781 13.984375 -29.09375 C 13.953125 -28.882812 13.9375 -28.65625 13.9375 -28.40625 C 14.78125 -29.382812 15.71875 -30.328125 16.75 -31.234375 C 17.78125 -32.140625 18.828125 -32.957031 19.890625 -33.6875 C 20.953125 -34.414062 22.046875 -35.007812 23.171875 -35.46875 C 24.296875 -35.925781 25.375 -36.15625 26.40625 -36.15625 C 27.800781 -36.15625 28.9375 -35.804688 29.8125 -35.109375 C 30.695312 -34.410156 31.378906 -33.484375 31.859375 -32.328125 C 32.347656 -31.171875 32.65625 -29.878906 32.78125 -28.453125 C 32.90625 -27.023438 32.9375 -25.613281 32.875 -24.21875 C 32.8125 -22.707031 32.550781 -21.097656 32.09375 -19.390625 C 31.644531 -17.691406 31.023438 -15.960938 30.234375 -14.203125 C 29.441406 -12.441406 28.53125 -10.710938 27.5 -9.015625 C 26.46875 -7.316406 25.375 -5.738281 24.21875 -4.28125 C 24.46875 -4.21875 24.617188 -4.171875 24.671875 -4.140625 C 24.734375 -4.109375 24.765625 -4.078125 24.765625 -4.046875 C 24.765625 -4.015625 24.8125 -3.984375 24.90625 -3.953125 C 25 -3.929688 25.195312 -3.921875 25.5 -3.921875 C 26.894531 -3.921875 28.320312 -4.28125 29.78125 -5 C 31.238281 -5.726562 32.664062 -6.65625 34.0625 -7.78125 C 35.457031 -8.90625 36.804688 -10.132812 38.109375 -11.46875 C 39.410156 -12.8125 40.59375 -14.101562 41.65625 -15.34375 C 42.71875 -16.59375 43.613281 -17.71875 44.34375 -18.71875 C 45.070312 -19.71875 45.617188 -20.429688 45.984375 -20.859375 C 46.472656 -21.460938 46.925781 -21.867188 47.34375 -22.078125 C 47.769531 -22.296875 48.101562 -22.3125 48.34375 -22.125 C 48.59375 -21.945312 48.71875 -21.597656 48.71875 -21.078125 C 48.71875 -20.566406 48.535156 -19.914062 48.171875 -19.125 C 47.929688 -18.570312 47.414062 -17.6875 46.625 -16.46875 C 45.832031 -15.257812 44.859375 -13.894531 43.703125 -12.375 C 42.554688 -10.863281 41.238281 -9.285156 39.75 -7.640625 C 38.257812 -6.003906 36.691406 -4.519531 35.046875 -3.1875 C 33.410156 -1.851562 31.726562 -0.75 30 0.125 C 28.269531 1.007812 26.585938 1.453125 24.953125 1.453125 C 24.160156 1.453125 23.519531 1.421875 23.03125 1.359375 C 22.550781 1.304688 22.144531 1.203125 21.8125 1.046875 C 21.476562 0.890625 21.160156 0.734375 20.859375 0.578125 C 20.554688 0.429688 20.191406 0.269531 19.765625 0.09375 C 18.671875 0.9375 17.546875 1.585938 16.390625 2.046875 C 15.234375 2.503906 14.109375 2.734375 13.015625 2.734375 C 11.984375 2.734375 11.085938 2.566406 10.328125 2.234375 C 9.578125 1.898438 8.957031 1.441406 8.46875 0.859375 C 7.976562 0.285156 7.582031 -0.347656 7.28125 -1.046875 C 6.976562 -1.742188 6.738281 -2.425781 6.5625 -3.09375 C 6.5 -2.851562 6.453125 -2.640625 6.421875 -2.453125 C 6.390625 -2.273438 6.34375 -2.035156 6.28125 -1.734375 C 5.550781 1.179688 4.789062 4.550781 4 8.375 C 3.332031 11.65625 2.53125 15.644531 1.59375 20.34375 C 0.65625 25.050781 -0.328125 30.410156 -1.359375 36.421875 C -1.722656 38.066406 -2.375 39.007812 -3.3125 39.25 C -4.257812 39.488281 -5.34375 39.367188 -6.5625 38.890625 Z M 10.109375 -17.578125 C 9.804688 -16.546875 9.488281 -15.34375 9.15625 -13.96875 C 8.820312 -12.601562 8.441406 -10.984375 8.015625 -9.109375 C 8.503906 -9.472656 9.050781 -9.742188 9.65625 -9.921875 C 10.257812 -10.109375 10.863281 -10.203125 11.46875 -10.203125 C 12.132812 -10.203125 12.984375 -9.851562 14.015625 -9.15625 C 15.054688 -8.457031 16.300781 -7.710938 17.75 -6.921875 C 18.664062 -8.015625 19.625 -9.242188 20.625 -10.609375 C 21.625 -11.972656 22.535156 -13.382812 23.359375 -14.84375 C 24.179688 -16.300781 24.878906 -17.785156 25.453125 -19.296875 C 26.023438 -20.816406 26.34375 -22.273438 26.40625 -23.671875 C 26.53125 -25.492188 26.316406 -26.921875 25.765625 -27.953125 C 25.222656 -28.984375 24.316406 -29.5 23.046875 -29.5 C 21.160156 -29.5 19.109375 -28.390625 16.890625 -26.171875 C 14.671875 -23.960938 12.410156 -21.097656 10.109375 -17.578125 Z M 10.109375 -17.578125 "/></g></g><g style="fill:#211c01;fill-opacity:1;"><g transform="translate(144.675072, 194.075641)"><path style="stroke:none" d="M 41.25 -18.9375 C 39.425781 -16.269531 37.359375 -13.675781 35.046875 -11.15625 C 32.742188 -8.632812 30.300781 -6.382812 27.71875 -4.40625 C 25.144531 -2.4375 22.503906 -0.847656 19.796875 0.359375 C 17.097656 1.578125 14.472656 2.1875 11.921875 2.1875 C 10.585938 2.1875 9.144531 1.863281 7.59375 1.21875 C 6.050781 0.582031 4.640625 -0.398438 3.359375 -1.734375 C 2.085938 -3.066406 1.070312 -4.796875 0.3125 -6.921875 C -0.4375 -9.046875 -0.660156 -11.625 -0.359375 -14.65625 C -0.117188 -17.144531 0.648438 -19.769531 1.953125 -22.53125 C 3.265625 -25.300781 4.875 -27.835938 6.78125 -30.140625 C 8.695312 -32.453125 10.851562 -34.363281 13.25 -35.875 C 15.644531 -37.394531 18.054688 -38.15625 20.484375 -38.15625 C 22.796875 -38.15625 24.46875 -37.578125 25.5 -36.421875 C 26.53125 -35.273438 26.984375 -33.847656 26.859375 -32.140625 C 26.679688 -30.265625 26.148438 -28.535156 25.265625 -26.953125 C 24.390625 -25.378906 23.34375 -23.953125 22.125 -22.671875 C 20.914062 -21.398438 19.625 -20.25 18.25 -19.21875 C 16.882812 -18.1875 15.597656 -17.242188 14.390625 -16.390625 C 13.054688 -15.484375 11.78125 -14.617188 10.5625 -13.796875 C 9.351562 -12.972656 8.289062 -12.226562 7.375 -11.5625 C 7.4375 -10.039062 7.707031 -8.765625 8.1875 -7.734375 C 8.675781 -6.703125 9.285156 -5.867188 10.015625 -5.234375 C 10.742188 -4.597656 11.578125 -4.140625 12.515625 -3.859375 C 13.460938 -3.585938 14.421875 -3.453125 15.390625 -3.453125 C 17.453125 -3.453125 19.601562 -4.101562 21.84375 -5.40625 C 24.09375 -6.71875 26.296875 -8.300781 28.453125 -10.15625 C 30.609375 -12.007812 32.613281 -13.9375 34.46875 -15.9375 C 36.320312 -17.9375 37.851562 -19.664062 39.0625 -21.125 C 39.488281 -21.613281 39.925781 -21.898438 40.375 -21.984375 C 40.832031 -22.078125 41.195312 -22.015625 41.46875 -21.796875 C 41.75 -21.585938 41.890625 -21.222656 41.890625 -20.703125 C 41.890625 -20.191406 41.675781 -19.601562 41.25 -18.9375 Z M 17.9375 -32.96875 C 17.207031 -32.96875 16.34375 -32.601562 15.34375 -31.875 C 14.34375 -31.144531 13.351562 -30.097656 12.375 -28.734375 C 11.40625 -27.367188 10.492188 -25.695312 9.640625 -23.71875 C 8.796875 -21.75 8.160156 -19.488281 7.734375 -16.9375 C 8.460938 -17.476562 9.253906 -18.035156 10.109375 -18.609375 C 10.960938 -19.191406 11.8125 -19.816406 12.65625 -20.484375 C 15.269531 -22.492188 17.09375 -24.253906 18.125 -25.765625 C 19.15625 -27.285156 19.734375 -28.59375 19.859375 -29.6875 C 19.972656 -30.84375 19.847656 -31.675781 19.484375 -32.1875 C 19.117188 -32.707031 18.601562 -32.96875 17.9375 -32.96875 Z M 17.9375 -32.96875 "/></g></g><g style="fill:#211c01;fill-opacity:1;"><g transform="translate(175.640625, 194.075641)"><path style="stroke:none" d="M 27.046875 2.28125 C 25.648438 2.28125 24.453125 2.019531 23.453125 1.5 C 22.453125 0.988281 21.644531 0.304688 21.03125 -0.546875 C 20.425781 -1.398438 20.03125 -2.382812 19.84375 -3.5 C 19.664062 -4.625 19.726562 -5.828125 20.03125 -7.109375 C 20.21875 -7.953125 20.519531 -9.085938 20.9375 -10.515625 C 21.363281 -11.941406 21.804688 -13.488281 22.265625 -15.15625 C 22.722656 -16.832031 23.144531 -18.503906 23.53125 -20.171875 C 23.925781 -21.835938 24.1875 -23.351562 24.3125 -24.71875 C 24.4375 -26.082031 24.375 -27.203125 24.125 -28.078125 C 23.882812 -28.960938 23.367188 -29.40625 22.578125 -29.40625 C 21.609375 -29.40625 20.609375 -29.085938 19.578125 -28.453125 C 18.546875 -27.816406 17.5 -26.953125 16.4375 -25.859375 C 15.375 -24.765625 14.3125 -23.503906 13.25 -22.078125 C 12.1875 -20.648438 11.140625 -19.179688 10.109375 -17.671875 C 9.554688 -15.609375 9.097656 -13.800781 8.734375 -12.25 C 8.378906 -10.695312 8.0625 -9.296875 7.78125 -8.046875 C 7.507812 -6.804688 7.25 -5.71875 7 -4.78125 C 6.757812 -3.84375 6.550781 -2.945312 6.375 -2.09375 C 6.1875 -1.488281 5.640625 -0.894531 4.734375 -0.3125 C 3.828125 0.257812 2.851562 0.726562 1.8125 1.09375 C 0.78125 1.457031 -0.109375 1.640625 -0.859375 1.640625 C -1.617188 1.640625 -1.941406 1.363281 -1.828125 0.8125 C -1.765625 0.445312 -1.566406 -0.367188 -1.234375 -1.640625 C -0.898438 -2.910156 -0.503906 -4.410156 -0.046875 -6.140625 C 0.410156 -7.878906 0.878906 -9.71875 1.359375 -11.65625 C 1.847656 -13.601562 2.304688 -15.457031 2.734375 -17.21875 C 3.035156 -18.613281 3.367188 -20.160156 3.734375 -21.859375 C 4.035156 -23.316406 4.414062 -25.015625 4.875 -26.953125 C 5.332031 -28.898438 5.863281 -31.023438 6.46875 -33.328125 C 6.894531 -33.691406 7.332031 -33.976562 7.78125 -34.1875 C 8.238281 -34.40625 8.710938 -34.578125 9.203125 -34.703125 C 9.679688 -34.878906 10.195312 -35 10.75 -35.0625 C 11.226562 -35.0625 11.710938 -35.03125 12.203125 -34.96875 C 12.628906 -34.90625 13.066406 -34.796875 13.515625 -34.640625 C 13.972656 -34.492188 14.382812 -34.269531 14.75 -33.96875 C 14.570312 -33.539062 14.359375 -32.945312 14.109375 -32.1875 C 13.867188 -31.425781 13.628906 -30.625 13.390625 -29.78125 C 13.140625 -28.8125 12.832031 -27.804688 12.46875 -26.765625 C 13.257812 -27.859375 14.15625 -28.96875 15.15625 -30.09375 C 16.164062 -31.21875 17.257812 -32.234375 18.4375 -33.140625 C 19.625 -34.054688 20.882812 -34.800781 22.21875 -35.375 C 23.550781 -35.957031 24.914062 -36.25 26.3125 -36.25 C 27.46875 -36.25 28.5 -35.910156 29.40625 -35.234375 C 30.320312 -34.566406 31.035156 -33.640625 31.546875 -32.453125 C 32.066406 -31.273438 32.367188 -29.863281 32.453125 -28.21875 C 32.546875 -26.582031 32.320312 -24.796875 31.78125 -22.859375 L 30.78125 -18.84375 C 30.476562 -17.570312 30.097656 -16.070312 29.640625 -14.34375 C 29.179688 -12.613281 28.617188 -10.71875 27.953125 -8.65625 C 27.585938 -7.3125 27.453125 -6.15625 27.546875 -5.1875 C 27.640625 -4.21875 28.234375 -3.734375 29.328125 -3.734375 C 30.421875 -3.734375 31.800781 -4.398438 33.46875 -5.734375 C 35.132812 -7.066406 36.816406 -8.675781 38.515625 -10.5625 C 40.210938 -12.445312 41.820312 -14.375 43.34375 -16.34375 C 44.863281 -18.320312 46.019531 -19.914062 46.8125 -21.125 C 47.351562 -21.914062 47.863281 -22.429688 48.34375 -22.671875 C 48.832031 -22.921875 49.210938 -22.953125 49.484375 -22.765625 C 49.765625 -22.585938 49.90625 -22.175781 49.90625 -21.53125 C 49.90625 -20.894531 49.660156 -20.09375 49.171875 -19.125 C 48.742188 -18.269531 48.085938 -17.144531 47.203125 -15.75 C 46.328125 -14.351562 45.28125 -12.863281 44.0625 -11.28125 C 42.851562 -9.707031 41.550781 -8.113281 40.15625 -6.5 C 38.757812 -4.894531 37.300781 -3.441406 35.78125 -2.140625 C 34.269531 -0.835938 32.769531 0.222656 31.28125 1.046875 C 29.789062 1.867188 28.378906 2.28125 27.046875 2.28125 Z M 27.046875 2.28125 "/></g></g><g style="fill:#211c01;fill-opacity:1;"><g transform="translate(214.984116, 194.075641)"><path style="stroke:none" d="M 15.03125 -30.96875 C 11.925781 -30.96875 9.414062 -31.300781 7.5 -31.96875 C 5.59375 -32.632812 4.304688 -33.484375 3.640625 -34.515625 C 3.335938 -34.941406 3.0625 -35.578125 2.8125 -36.421875 C 2.570312 -37.273438 2.664062 -38.21875 3.09375 -39.25 C 3.945312 -38.582031 4.875 -38.082031 5.875 -37.75 C 6.875 -37.414062 7.800781 -37.1875 8.65625 -37.0625 C 9.6875 -36.882812 10.6875 -36.796875 11.65625 -36.796875 C 13.476562 -36.796875 15.253906 -36.945312 16.984375 -37.25 C 18.710938 -37.550781 20.425781 -37.972656 22.125 -38.515625 C 22.851562 -42.160156 23.566406 -45.4375 24.265625 -48.34375 C 24.960938 -51.257812 25.769531 -53.628906 26.6875 -55.453125 C 27.65625 -57.460938 28.671875 -59.269531 29.734375 -60.875 C 30.796875 -62.488281 31.976562 -63.851562 33.28125 -64.96875 C 34.582031 -66.09375 36.023438 -66.957031 37.609375 -67.5625 C 39.191406 -68.175781 41.015625 -68.484375 43.078125 -68.484375 C 44.585938 -68.484375 45.78125 -68.175781 46.65625 -67.5625 C 47.539062 -66.957031 48.210938 -66.195312 48.671875 -65.28125 C 49.128906 -64.375 49.398438 -63.390625 49.484375 -62.328125 C 49.578125 -61.265625 49.625 -60.28125 49.625 -59.375 C 49.625 -57.375 49.140625 -55.1875 48.171875 -52.8125 C 47.203125 -50.445312 45.835938 -48.109375 44.078125 -45.796875 C 42.316406 -43.492188 40.207031 -41.3125 37.75 -39.25 C 35.289062 -37.1875 32.539062 -35.488281 29.5 -34.15625 C 28.46875 -30.144531 27.453125 -26.179688 26.453125 -22.265625 C 25.453125 -18.347656 24.46875 -15.113281 23.5 -12.5625 C 22.644531 -10.195312 21.5625 -7.554688 20.25 -4.640625 C 18.945312 -1.722656 17.359375 1.066406 15.484375 3.734375 C 16.640625 4.460938 17.804688 5.21875 18.984375 6 C 20.171875 6.789062 21.367188 7.503906 22.578125 8.140625 C 23.796875 8.785156 25.023438 9.316406 26.265625 9.734375 C 27.515625 10.160156 28.835938 10.375 30.234375 10.375 C 31.691406 10.320312 33.117188 10.113281 34.515625 9.75 C 35.722656 9.4375 36.992188 8.929688 38.328125 8.234375 C 39.671875 7.535156 40.921875 6.550781 42.078125 5.28125 C 42.492188 6.007812 42.625 7.101562 42.46875 8.5625 C 42.320312 10.019531 41.851562 11.472656 41.0625 12.921875 C 40.28125 14.378906 39.160156 15.65625 37.703125 16.75 C 36.242188 17.84375 34.421875 18.390625 32.234375 18.390625 C 29.929688 18.390625 27.773438 18.070312 25.765625 17.4375 C 23.765625 16.800781 21.882812 16.023438 20.125 15.109375 C 18.363281 14.203125 16.707031 13.21875 15.15625 12.15625 C 13.613281 11.09375 12.175781 10.109375 10.84375 9.203125 C 9.019531 10.960938 7.015625 12.382812 4.828125 13.46875 C 2.640625 14.5625 0.210938 15.109375 -2.453125 15.109375 C -4.578125 15.109375 -6.273438 14.515625 -7.546875 13.328125 C -8.828125 12.148438 -9.40625 10.5625 -9.28125 8.5625 C -9.226562 7.832031 -9.019531 6.96875 -8.65625 5.96875 C -8.289062 4.96875 -7.601562 4.007812 -6.59375 3.09375 C -5.59375 2.1875 -4.210938 1.410156 -2.453125 0.765625 C -0.691406 0.128906 1.582031 -0.1875 4.375 -0.1875 C 5.40625 -0.1875 6.390625 -0.0820312 7.328125 0.125 C 8.273438 0.34375 9.203125 0.601562 10.109375 0.90625 C 10.773438 -0.300781 11.441406 -1.691406 12.109375 -3.265625 C 12.773438 -4.847656 13.503906 -6.644531 14.296875 -8.65625 C 15.691406 -12.476562 16.90625 -16.316406 17.9375 -20.171875 C 18.96875 -24.023438 19.847656 -27.773438 20.578125 -31.421875 C 19.734375 -31.234375 18.835938 -31.109375 17.890625 -31.046875 C 16.953125 -30.992188 16 -30.96875 15.03125 -30.96875 Z M -0.09375 10.203125 C 0.695312 9.898438 1.609375 9.59375 2.640625 9.28125 C 3.671875 8.976562 4.851562 8.128906 6.1875 6.734375 C 5.28125 6.429688 4.582031 6.28125 4.09375 6.28125 C 1.90625 6.28125 0.3125 6.597656 -0.6875 7.234375 C -1.6875 7.878906 -2.1875 8.503906 -2.1875 9.109375 C -2.1875 9.535156 -2.003906 9.851562 -1.640625 10.0625 C -1.273438 10.269531 -0.757812 10.316406 -0.09375 10.203125 Z M 34.328125 -53.1875 C 34.023438 -52.269531 33.628906 -50.929688 33.140625 -49.171875 C 32.660156 -47.410156 32.144531 -45.378906 31.59375 -43.078125 C 34.875 -45.203125 37.5 -47.628906 39.46875 -50.359375 C 41.445312 -53.085938 42.4375 -55.816406 42.4375 -58.546875 C 42.4375 -60.191406 41.953125 -61.015625 40.984375 -61.015625 C 40.128906 -61.015625 39.035156 -60.359375 37.703125 -59.046875 C 36.367188 -57.742188 35.242188 -55.789062 34.328125 -53.1875 Z M 34.328125 -53.1875 "/></g></g><g style="fill:#211c01;fill-opacity:1;"><g transform="translate(257.150604, 194.075641)"><path style="stroke:none" d="M 26.953125 -14.484375 C 26.347656 -12.171875 25.53125 -10.015625 24.5 -8.015625 C 23.46875 -6.015625 22.238281 -4.285156 20.8125 -2.828125 C 19.382812 -1.367188 17.773438 -0.226562 15.984375 0.59375 C 14.191406 1.414062 12.234375 1.828125 10.109375 1.828125 C 7.617188 1.828125 5.660156 1.296875 4.234375 0.234375 C 2.804688 -0.828125 1.742188 -2.144531 1.046875 -3.71875 C 0.347656 -5.300781 -0.0703125 -7.035156 -0.21875 -8.921875 C -0.375 -10.804688 -0.453125 -12.566406 -0.453125 -14.203125 C -0.453125 -15.359375 -0.316406 -16.632812 -0.046875 -18.03125 C 0.222656 -19.425781 0.601562 -20.851562 1.09375 -22.3125 C 1.582031 -23.769531 2.203125 -25.226562 2.953125 -26.6875 C 3.710938 -28.144531 4.609375 -29.476562 5.640625 -30.6875 C 6.003906 -31.71875 6.566406 -32.628906 7.328125 -33.421875 C 8.085938 -34.210938 8.96875 -34.863281 9.96875 -35.375 C 10.96875 -35.894531 12.046875 -36.289062 13.203125 -36.5625 C 14.359375 -36.832031 15.484375 -36.96875 16.578125 -36.96875 C 16.753906 -36.96875 16.914062 -36.9375 17.0625 -36.875 C 17.21875 -36.820312 17.390625 -36.765625 17.578125 -36.703125 C 18.367188 -36.640625 19.351562 -36.332031 20.53125 -35.78125 C 21.71875 -35.238281 22.875 -34.421875 24 -33.328125 C 25.125 -32.234375 26.078125 -30.851562 26.859375 -29.1875 C 27.648438 -27.519531 28.046875 -25.5 28.046875 -23.125 C 28.046875 -22.644531 28.015625 -22.054688 27.953125 -21.359375 C 27.890625 -20.660156 27.832031 -20.066406 27.78125 -19.578125 C 29.175781 -20.128906 30.628906 -20.796875 32.140625 -21.578125 C 33.660156 -22.367188 35.132812 -23.203125 36.5625 -24.078125 C 37.988281 -24.960938 39.304688 -25.859375 40.515625 -26.765625 C 41.734375 -27.679688 42.707031 -28.503906 43.4375 -29.234375 C 44.039062 -29.773438 44.554688 -30.078125 44.984375 -30.140625 C 45.410156 -30.203125 45.710938 -30.082031 45.890625 -29.78125 C 46.078125 -29.476562 46.109375 -29.050781 45.984375 -28.5 C 45.867188 -27.957031 45.535156 -27.351562 44.984375 -26.6875 C 44.679688 -26.320312 43.90625 -25.59375 42.65625 -24.5 C 41.414062 -23.40625 39.945312 -22.21875 38.25 -20.9375 C 36.550781 -19.664062 34.695312 -18.421875 32.6875 -17.203125 C 30.6875 -15.992188 28.773438 -15.085938 26.953125 -14.484375 Z M 11.5625 -28.328125 C 11.382812 -27.773438 11.296875 -27.195312 11.296875 -26.59375 C 11.296875 -25.625 11.351562 -24.609375 11.46875 -23.546875 C 11.59375 -22.484375 11.894531 -21.523438 12.375 -20.671875 C 12.863281 -19.816406 13.640625 -19.101562 14.703125 -18.53125 C 15.765625 -17.957031 17.238281 -17.671875 19.125 -17.671875 C 19.425781 -17.671875 19.726562 -17.679688 20.03125 -17.703125 C 20.332031 -17.734375 20.632812 -17.78125 20.9375 -17.84375 C 21.125 -18.632812 21.289062 -19.347656 21.4375 -19.984375 C 21.59375 -20.617188 21.671875 -21.179688 21.671875 -21.671875 C 21.796875 -22.828125 21.796875 -24.007812 21.671875 -25.21875 C 21.546875 -26.4375 21.316406 -27.546875 20.984375 -28.546875 C 20.648438 -29.546875 20.222656 -30.363281 19.703125 -31 C 19.191406 -31.644531 18.570312 -31.96875 17.84375 -31.96875 C 16.695312 -31.96875 15.59375 -31.644531 14.53125 -31 C 13.46875 -30.363281 12.476562 -29.472656 11.5625 -28.328125 Z M 5.734375 -12.296875 C 5.734375 -11.203125 5.789062 -10.125 5.90625 -9.0625 C 6.03125 -8 6.273438 -7.054688 6.640625 -6.234375 C 7.003906 -5.421875 7.488281 -4.753906 8.09375 -4.234375 C 8.707031 -3.710938 9.5 -3.453125 10.46875 -3.453125 C 11.5625 -3.453125 12.5625 -3.710938 13.46875 -4.234375 C 14.382812 -4.753906 15.207031 -5.421875 15.9375 -6.234375 C 16.664062 -7.054688 17.316406 -8 17.890625 -9.0625 C 18.472656 -10.125 18.972656 -11.234375 19.390625 -12.390625 C 18.972656 -12.328125 18.566406 -12.28125 18.171875 -12.25 C 17.773438 -12.21875 17.332031 -12.203125 16.84375 -12.203125 C 14.539062 -12.203125 12.550781 -12.882812 10.875 -14.25 C 9.207031 -15.613281 7.921875 -17.359375 7.015625 -19.484375 C 6.648438 -18.210938 6.34375 -16.96875 6.09375 -15.75 C 5.851562 -14.539062 5.734375 -13.390625 5.734375 -12.296875 Z M 5.734375 -12.296875 "/></g></g><g style="fill:#211c01;fill-opacity:1;"><g transform="translate(290.119568, 194.075641)"><path style="stroke:none" d="M 33.609375 -23.046875 C 33.847656 -23.398438 34.164062 -23.625 34.5625 -23.71875 C 34.957031 -23.8125 35.273438 -23.765625 35.515625 -23.578125 C 35.753906 -23.398438 35.890625 -23.097656 35.921875 -22.671875 C 35.953125 -22.242188 35.785156 -21.664062 35.421875 -20.9375 C 34.210938 -18.632812 32.617188 -16.144531 30.640625 -13.46875 C 28.671875 -10.800781 26.59375 -8.296875 24.40625 -5.953125 C 22.21875 -3.617188 20.09375 -1.691406 18.03125 -0.171875 C 15.96875 1.335938 14.238281 2.09375 12.84375 2.09375 C 10.832031 2.09375 9.160156 1.695312 7.828125 0.90625 C 6.492188 0.125 5.445312 -0.84375 4.6875 -2 C 3.925781 -3.15625 3.394531 -4.414062 3.09375 -5.78125 C 2.789062 -7.144531 2.703125 -8.40625 2.828125 -9.5625 C 2.890625 -10.53125 3.097656 -12.273438 3.453125 -14.796875 C 3.816406 -17.316406 4.300781 -20.226562 4.90625 -23.53125 C 5.519531 -26.84375 6.207031 -30.394531 6.96875 -34.1875 C 7.726562 -37.988281 8.53125 -41.648438 9.375 -45.171875 C 8.34375 -45.046875 7.3125 -44.921875 6.28125 -44.796875 C 5.25 -44.679688 4.304688 -44.625 3.453125 -44.625 C 1.515625 -44.625 -0.316406 -44.847656 -2.046875 -45.296875 C -3.773438 -45.753906 -5.066406 -46.195312 -5.921875 -46.625 C -6.398438 -46.863281 -6.609375 -47.210938 -6.546875 -47.671875 C -6.492188 -48.128906 -6.316406 -48.582031 -6.015625 -49.03125 C -5.710938 -49.488281 -5.332031 -49.882812 -4.875 -50.21875 C -4.414062 -50.550781 -4.003906 -50.71875 -3.640625 -50.71875 C -2.484375 -50.601562 -1.238281 -50.5 0.09375 -50.40625 C 1.425781 -50.3125 2.882812 -50.296875 4.46875 -50.359375 C 5.613281 -50.421875 6.71875 -50.507812 7.78125 -50.625 C 8.84375 -50.75 9.890625 -50.90625 10.921875 -51.09375 C 11.710938 -54 12.488281 -56.53125 13.25 -58.6875 C 14.007812 -60.84375 14.691406 -62.347656 15.296875 -63.203125 C 15.484375 -63.503906 15.894531 -63.757812 16.53125 -63.96875 C 17.164062 -64.1875 17.847656 -64.335938 18.578125 -64.421875 C 19.304688 -64.515625 20.003906 -64.515625 20.671875 -64.421875 C 21.335938 -64.335938 21.820312 -64.113281 22.125 -63.75 C 22.425781 -63.257812 22.546875 -62.007812 22.484375 -60 C 22.429688 -58 22.097656 -55.453125 21.484375 -52.359375 C 24.035156 -52.359375 26.296875 -52.222656 28.265625 -51.953125 C 30.242188 -51.679688 31.929688 -51.378906 33.328125 -51.046875 C 34.722656 -50.710938 35.84375 -50.378906 36.6875 -50.046875 C 37.539062 -49.710938 38.179688 -49.484375 38.609375 -49.359375 C 39.035156 -49.234375 39.265625 -48.925781 39.296875 -48.4375 C 39.328125 -47.957031 39.234375 -47.457031 39.015625 -46.9375 C 38.804688 -46.425781 38.457031 -45.988281 37.96875 -45.625 C 37.488281 -45.257812 36.941406 -45.140625 36.328125 -45.265625 C 35.722656 -45.316406 35.039062 -45.429688 34.28125 -45.609375 C 33.519531 -45.796875 32.609375 -45.953125 31.546875 -46.078125 C 30.484375 -46.203125 29.222656 -46.320312 27.765625 -46.4375 C 26.316406 -46.5625 24.617188 -46.625 22.671875 -46.625 C 22.304688 -46.625 21.894531 -46.609375 21.4375 -46.578125 C 20.988281 -46.546875 20.519531 -46.53125 20.03125 -46.53125 C 19.789062 -45.5625 19.5625 -44.601562 19.34375 -43.65625 C 19.132812 -42.71875 18.847656 -41.734375 18.484375 -40.703125 C 17.691406 -38.273438 16.78125 -35.632812 15.75 -32.78125 C 14.84375 -30.289062 13.75 -27.4375 12.46875 -24.21875 C 11.195312 -21 9.773438 -17.570312 8.203125 -13.9375 C 7.835938 -11.320312 7.878906 -9.332031 8.328125 -7.96875 C 8.785156 -6.601562 9.347656 -5.617188 10.015625 -5.015625 C 10.804688 -4.335938 11.78125 -3.972656 12.9375 -3.921875 C 13.84375 -3.796875 14.945312 -4.113281 16.25 -4.875 C 17.5625 -5.632812 18.914062 -6.648438 20.3125 -7.921875 C 21.707031 -9.191406 23.117188 -10.585938 24.546875 -12.109375 C 25.972656 -13.628906 27.289062 -15.117188 28.5 -16.578125 C 29.71875 -18.035156 30.78125 -19.351562 31.6875 -20.53125 C 32.601562 -21.71875 33.242188 -22.554688 33.609375 -23.046875 Z M 33.609375 -23.046875 "/></g></g></g></svg>