<svg xmlns="http://www.w3.org/2000/svg" xmlns:xlink="http://www.w3.org/1999/xlink" width="500" zoomAndPan="magnify" viewBox="0 0 375 374.999991" height="500" preserveAspectRatio="xMidYMid meet" version="1.2"><defs/><g id="7375c0fbfb"><g style="fill:#211c01;fill-opacity:1;"><g transform="translate(2.564189, 218.866678)"><path style="stroke:none" d="M 65.140625 -41.765625 C 64.722656 -36.546875 63.894531 -31.304688 62.65625 -26.046875 C 61.414062 -20.785156 59.859375 -15.707031 57.984375 -10.8125 C 56.117188 -5.925781 53.941406 -1.347656 51.453125 2.921875 C 48.972656 7.191406 46.21875 10.898438 43.1875 14.046875 C 40.164062 17.191406 36.9375 19.675781 33.5 21.5 C 30.0625 23.320312 26.476562 24.234375 22.75 24.234375 C 22 24.234375 20.859375 24.085938 19.328125 23.796875 C 17.796875 23.515625 16.160156 22.851562 14.421875 21.8125 C 12.679688 20.78125 10.921875 19.269531 9.140625 17.28125 C 7.359375 15.289062 5.800781 12.617188 4.46875 9.265625 C 3.144531 5.910156 2.191406 1.75 1.609375 -3.21875 C 1.035156 -8.195312 1.035156 -14.207031 1.609375 -21.25 C 2.609375 -32.363281 4.660156 -42.457031 7.765625 -51.53125 C 10.878906 -60.601562 14.441406 -68.367188 18.453125 -74.828125 C 22.472656 -81.296875 26.640625 -86.289062 30.953125 -89.8125 C 35.265625 -93.332031 39.078125 -95.09375 42.390625 -95.09375 C 43.710938 -95.09375 44.804688 -94.820312 45.671875 -94.28125 C 46.546875 -93.75 47.234375 -93.066406 47.734375 -92.234375 C 48.316406 -92.398438 48.976562 -92.523438 49.71875 -92.609375 C 50.46875 -92.691406 51.300781 -92.734375 52.21875 -92.734375 C 54.613281 -92.734375 56.742188 -91.488281 58.609375 -89 C 60.472656 -86.519531 62.003906 -83.039062 63.203125 -78.5625 C 64.410156 -74.09375 65.203125 -68.726562 65.578125 -62.46875 C 65.953125 -56.207031 65.804688 -49.304688 65.140625 -41.765625 Z M 23.125 17.03125 C 26.351562 17.03125 29.664062 15.367188 33.0625 12.046875 C 36.46875 8.734375 39.617188 4.242188 42.515625 -1.421875 C 45.410156 -7.097656 47.894531 -13.707031 49.96875 -21.25 C 52.039062 -28.789062 53.453125 -36.789062 54.203125 -45.25 C 54.367188 -47.488281 54.492188 -50.054688 54.578125 -52.953125 C 54.660156 -55.859375 54.660156 -58.800781 54.578125 -61.78125 C 54.492188 -64.769531 54.304688 -67.734375 54.015625 -70.671875 C 53.722656 -73.609375 53.328125 -76.195312 52.828125 -78.4375 C 52.335938 -80.675781 51.71875 -82.5 50.96875 -83.90625 C 50.21875 -85.320312 49.347656 -86.03125 48.359375 -86.03125 C 47.273438 -85.945312 46.195312 -85.613281 45.125 -85.03125 C 44.21875 -84.53125 43.160156 -83.71875 41.953125 -82.59375 C 40.753906 -81.476562 39.570312 -79.925781 38.40625 -77.9375 C 38.164062 -78.101562 37.984375 -78.351562 37.859375 -78.6875 C 37.734375 -79.019531 37.585938 -79.351562 37.421875 -79.6875 C 37.253906 -80.019531 37.128906 -80.390625 37.046875 -80.796875 C 36.878906 -81.046875 36.796875 -81.359375 36.796875 -81.734375 C 36.796875 -82.109375 36.753906 -82.546875 36.671875 -83.046875 C 35.015625 -81.222656 33.046875 -78.628906 30.765625 -75.265625 C 28.484375 -71.910156 26.203125 -67.742188 23.921875 -62.765625 C 21.648438 -57.796875 19.582031 -51.9375 17.71875 -45.1875 C 15.851562 -38.4375 14.546875 -30.75 13.796875 -22.125 C 13.128906 -14.5 12.960938 -8.160156 13.296875 -3.109375 C 13.628906 1.941406 14.269531 5.957031 15.21875 8.9375 C 16.175781 11.925781 17.359375 14.019531 18.765625 15.21875 C 20.179688 16.425781 21.632812 17.03125 23.125 17.03125 Z M 23.125 17.03125 "/></g></g><g style="fill:#211c01;fill-opacity:1;"><g transform="translate(69.695016, 218.866678)"><path style="stroke:none" d="M -8.953125 53.078125 C -9.535156 52.828125 -10.113281 52.457031 -10.6875 51.96875 C -11.1875 51.550781 -11.679688 51.03125 -12.171875 50.40625 C -12.671875 49.789062 -13.085938 49.023438 -13.421875 48.109375 C -11.097656 39.242188 -9.128906 31.535156 -7.515625 24.984375 C -5.898438 18.441406 -4.515625 12.972656 -3.359375 8.578125 C -2.109375 3.441406 -1.03125 -0.863281 -0.125 -4.34375 C 0.707031 -7.664062 1.535156 -10.984375 2.359375 -14.296875 C 3.023438 -17.191406 3.75 -20.296875 4.53125 -23.609375 C 5.320312 -26.929688 6.050781 -30.039062 6.71875 -32.9375 C 7.539062 -36.175781 8.035156 -38.769531 8.203125 -40.71875 C 8.367188 -42.664062 7.75 -44.34375 6.34375 -45.75 C 7.332031 -46.570312 8.34375 -47.210938 9.375 -47.671875 C 10.414062 -48.128906 11.351562 -48.441406 12.1875 -48.609375 C 13.09375 -48.859375 14.003906 -48.941406 14.921875 -48.859375 C 17.160156 -48.691406 18.546875 -47.984375 19.078125 -46.734375 C 19.617188 -45.492188 19.679688 -43.507812 19.265625 -40.78125 C 19.179688 -40.363281 19.117188 -40.007812 19.078125 -39.71875 C 19.035156 -39.425781 19.015625 -39.113281 19.015625 -38.78125 C 20.179688 -40.113281 21.46875 -41.398438 22.875 -42.640625 C 24.28125 -43.878906 25.707031 -44.992188 27.15625 -45.984375 C 28.613281 -46.984375 30.109375 -47.796875 31.640625 -48.421875 C 33.171875 -49.046875 34.640625 -49.359375 36.046875 -49.359375 C 37.953125 -49.359375 39.503906 -48.878906 40.703125 -47.921875 C 41.910156 -46.972656 42.84375 -45.707031 43.5 -44.125 C 44.164062 -42.550781 44.582031 -40.789062 44.75 -38.84375 C 44.914062 -36.894531 44.957031 -34.96875 44.875 -33.0625 C 44.789062 -30.988281 44.4375 -28.789062 43.8125 -26.46875 C 43.195312 -24.15625 42.347656 -21.796875 41.265625 -19.390625 C 40.191406 -16.984375 38.945312 -14.617188 37.53125 -12.296875 C 36.125 -9.984375 34.632812 -7.832031 33.0625 -5.84375 C 33.394531 -5.757812 33.601562 -5.695312 33.6875 -5.65625 C 33.769531 -5.613281 33.8125 -5.570312 33.8125 -5.53125 C 33.8125 -5.488281 33.875 -5.445312 34 -5.40625 C 34.125 -5.363281 34.394531 -5.34375 34.8125 -5.34375 C 36.71875 -5.34375 38.664062 -5.835938 40.65625 -6.828125 C 42.644531 -7.828125 44.59375 -9.09375 46.5 -10.625 C 48.40625 -12.15625 50.25 -13.832031 52.03125 -15.65625 C 53.8125 -17.476562 55.425781 -19.238281 56.875 -20.9375 C 58.320312 -22.644531 59.539062 -24.179688 60.53125 -25.546875 C 61.53125 -26.910156 62.28125 -27.882812 62.78125 -28.46875 C 63.4375 -29.289062 64.054688 -29.847656 64.640625 -30.140625 C 65.222656 -30.429688 65.675781 -30.453125 66 -30.203125 C 66.332031 -29.953125 66.5 -29.472656 66.5 -28.765625 C 66.5 -28.066406 66.253906 -27.179688 65.765625 -26.109375 C 65.429688 -25.359375 64.722656 -24.15625 63.640625 -22.5 C 62.566406 -20.84375 61.242188 -18.976562 59.671875 -16.90625 C 58.097656 -14.832031 56.296875 -12.675781 54.265625 -10.4375 C 52.234375 -8.195312 50.097656 -6.164062 47.859375 -4.34375 C 45.617188 -2.519531 43.316406 -1.007812 40.953125 0.1875 C 38.597656 1.382812 36.300781 1.984375 34.0625 1.984375 C 32.988281 1.984375 32.117188 1.941406 31.453125 1.859375 C 30.785156 1.773438 30.222656 1.628906 29.765625 1.421875 C 29.316406 1.222656 28.882812 1.019531 28.46875 0.8125 C 28.050781 0.601562 27.550781 0.375 26.96875 0.125 C 25.476562 1.28125 23.945312 2.171875 22.375 2.796875 C 20.800781 3.421875 19.269531 3.734375 17.78125 3.734375 C 16.363281 3.734375 15.140625 3.503906 14.109375 3.046875 C 13.078125 2.585938 12.226562 1.960938 11.5625 1.171875 C 10.894531 0.390625 10.351562 -0.472656 9.9375 -1.421875 C 9.53125 -2.378906 9.203125 -3.316406 8.953125 -4.234375 C 8.867188 -3.898438 8.804688 -3.609375 8.765625 -3.359375 C 8.722656 -3.109375 8.660156 -2.773438 8.578125 -2.359375 C 7.578125 1.617188 6.539062 6.21875 5.46875 11.4375 C 4.5625 15.914062 3.460938 21.363281 2.171875 27.78125 C 0.890625 34.207031 -0.453125 41.519531 -1.859375 49.71875 C -2.359375 51.957031 -3.25 53.242188 -4.53125 53.578125 C -5.820312 53.910156 -7.296875 53.742188 -8.953125 53.078125 Z M 13.796875 -24 C 13.378906 -22.582031 12.941406 -20.941406 12.484375 -19.078125 C 12.035156 -17.210938 11.519531 -15 10.9375 -12.4375 C 11.601562 -12.925781 12.347656 -13.296875 13.171875 -13.546875 C 14.003906 -13.796875 14.832031 -13.921875 15.65625 -13.921875 C 16.570312 -13.921875 17.734375 -13.441406 19.140625 -12.484375 C 20.546875 -11.535156 22.242188 -10.523438 24.234375 -9.453125 C 25.484375 -10.941406 26.789062 -12.617188 28.15625 -14.484375 C 29.519531 -16.347656 30.757812 -18.273438 31.875 -20.265625 C 33 -22.253906 33.953125 -24.285156 34.734375 -26.359375 C 35.523438 -28.429688 35.960938 -30.421875 36.046875 -32.328125 C 36.210938 -34.804688 35.921875 -36.75 35.171875 -38.15625 C 34.429688 -39.570312 33.191406 -40.28125 31.453125 -40.28125 C 28.878906 -40.28125 26.078125 -38.765625 23.046875 -35.734375 C 20.023438 -32.710938 16.941406 -28.800781 13.796875 -24 Z M 13.796875 -24 "/></g></g><g style="fill:#211c01;fill-opacity:1;"><g transform="translate(122.033294, 218.866678)"><path style="stroke:none" d="M 56.3125 -25.859375 C 53.820312 -22.210938 51.003906 -18.664062 47.859375 -15.21875 C 44.710938 -11.78125 41.375 -8.710938 37.84375 -6.015625 C 34.320312 -3.328125 30.71875 -1.15625 27.03125 0.5 C 23.34375 2.15625 19.757812 2.984375 16.28125 2.984375 C 14.457031 2.984375 12.488281 2.546875 10.375 1.671875 C 8.257812 0.804688 6.332031 -0.535156 4.59375 -2.359375 C 2.851562 -4.179688 1.460938 -6.539062 0.421875 -9.4375 C -0.609375 -12.34375 -0.914062 -15.867188 -0.5 -20.015625 C -0.164062 -23.410156 0.890625 -26.992188 2.671875 -30.765625 C 4.453125 -34.535156 6.644531 -37.992188 9.25 -41.140625 C 11.863281 -44.296875 14.804688 -46.910156 18.078125 -48.984375 C 21.359375 -51.054688 24.65625 -52.09375 27.96875 -52.09375 C 31.113281 -52.09375 33.390625 -51.300781 34.796875 -49.71875 C 36.210938 -48.144531 36.835938 -46.195312 36.671875 -43.875 C 36.421875 -41.3125 35.691406 -38.953125 34.484375 -36.796875 C 33.285156 -34.640625 31.859375 -32.691406 30.203125 -30.953125 C 28.546875 -29.210938 26.785156 -27.632812 24.921875 -26.21875 C 23.054688 -24.8125 21.296875 -23.53125 19.640625 -22.375 C 17.816406 -21.132812 16.078125 -19.953125 14.421875 -18.828125 C 12.765625 -17.710938 11.3125 -16.695312 10.0625 -15.78125 C 10.144531 -13.71875 10.519531 -11.976562 11.1875 -10.5625 C 11.851562 -9.15625 12.679688 -8.015625 13.671875 -7.140625 C 14.671875 -6.273438 15.8125 -5.65625 17.09375 -5.28125 C 18.375 -4.90625 19.679688 -4.71875 21.015625 -4.71875 C 23.828125 -4.71875 26.765625 -5.609375 29.828125 -7.390625 C 32.898438 -9.171875 35.90625 -11.328125 38.84375 -13.859375 C 41.789062 -16.390625 44.523438 -19.019531 47.046875 -21.75 C 49.578125 -24.488281 51.671875 -26.851562 53.328125 -28.84375 C 53.910156 -29.5 54.507812 -29.890625 55.125 -30.015625 C 55.75 -30.140625 56.25 -30.054688 56.625 -29.765625 C 57 -29.484375 57.1875 -28.988281 57.1875 -28.28125 C 57.1875 -27.570312 56.894531 -26.765625 56.3125 -25.859375 Z M 24.484375 -45 C 23.492188 -45 22.3125 -44.5 20.9375 -43.5 C 19.570312 -42.507812 18.226562 -41.082031 16.90625 -39.21875 C 15.582031 -37.351562 14.335938 -35.070312 13.171875 -32.375 C 12.015625 -29.6875 11.144531 -26.601562 10.5625 -23.125 C 11.5625 -23.863281 12.640625 -24.628906 13.796875 -25.421875 C 14.960938 -26.210938 16.125 -27.0625 17.28125 -27.96875 C 20.84375 -30.707031 23.328125 -33.109375 24.734375 -35.171875 C 26.148438 -37.242188 26.9375 -39.03125 27.09375 -40.53125 C 27.257812 -42.101562 27.09375 -43.238281 26.59375 -43.9375 C 26.101562 -44.644531 25.398438 -45 24.484375 -45 Z M 24.484375 -45 "/></g></g><g style="fill:#211c01;fill-opacity:1;"><g transform="translate(164.302689, 218.866678)"><path style="stroke:none" d="M 36.921875 3.109375 C 35.015625 3.109375 33.375 2.753906 32 2.046875 C 30.632812 1.347656 29.535156 0.421875 28.703125 -0.734375 C 27.878906 -1.898438 27.34375 -3.25 27.09375 -4.78125 C 26.851562 -6.3125 26.9375 -7.953125 27.34375 -9.703125 C 27.59375 -10.859375 28.007812 -12.410156 28.59375 -14.359375 C 29.175781 -16.304688 29.773438 -18.414062 30.390625 -20.6875 C 31.015625 -22.96875 31.59375 -25.25 32.125 -27.53125 C 32.664062 -29.8125 33.019531 -31.882812 33.1875 -33.75 C 33.351562 -35.613281 33.269531 -37.144531 32.9375 -38.34375 C 32.613281 -39.550781 31.910156 -40.15625 30.828125 -40.15625 C 29.503906 -40.15625 28.132812 -39.71875 26.71875 -38.84375 C 25.3125 -37.976562 23.882812 -36.796875 22.4375 -35.296875 C 20.988281 -33.804688 19.535156 -32.085938 18.078125 -30.140625 C 16.628906 -28.191406 15.203125 -26.179688 13.796875 -24.109375 C 13.054688 -21.296875 12.4375 -18.832031 11.9375 -16.71875 C 11.4375 -14.601562 11 -12.695312 10.625 -11 C 10.25 -9.300781 9.894531 -7.804688 9.5625 -6.515625 C 9.238281 -5.234375 8.953125 -4.015625 8.703125 -2.859375 C 8.453125 -2.023438 7.703125 -1.210938 6.453125 -0.421875 C 5.210938 0.359375 3.890625 0.992188 2.484375 1.484375 C 1.078125 1.984375 -0.140625 2.234375 -1.171875 2.234375 C -2.210938 2.234375 -2.648438 1.863281 -2.484375 1.125 C -2.398438 0.625 -2.128906 -0.492188 -1.671875 -2.234375 C -1.222656 -3.972656 -0.6875 -6.023438 -0.0625 -8.390625 C 0.5625 -10.753906 1.203125 -13.257812 1.859375 -15.90625 C 2.523438 -18.5625 3.148438 -21.09375 3.734375 -23.5 C 4.140625 -25.40625 4.59375 -27.515625 5.09375 -29.828125 C 5.507812 -31.816406 6.023438 -34.140625 6.640625 -36.796875 C 7.265625 -39.453125 7.992188 -42.351562 8.828125 -45.5 C 9.410156 -46 10.007812 -46.390625 10.625 -46.671875 C 11.25 -46.960938 11.894531 -47.191406 12.5625 -47.359375 C 13.21875 -47.609375 13.921875 -47.773438 14.671875 -47.859375 C 15.328125 -47.859375 15.988281 -47.816406 16.65625 -47.734375 C 17.238281 -47.648438 17.835938 -47.503906 18.453125 -47.296875 C 19.078125 -47.085938 19.640625 -46.78125 20.140625 -46.375 C 19.890625 -45.789062 19.597656 -44.976562 19.265625 -43.9375 C 18.929688 -42.90625 18.601562 -41.8125 18.28125 -40.65625 C 17.945312 -39.320312 17.53125 -37.953125 17.03125 -36.546875 C 18.101562 -38.035156 19.320312 -39.546875 20.6875 -41.078125 C 22.0625 -42.617188 23.554688 -44.007812 25.171875 -45.25 C 26.785156 -46.488281 28.503906 -47.503906 30.328125 -48.296875 C 32.148438 -49.085938 34.015625 -49.484375 35.921875 -49.484375 C 37.492188 -49.484375 38.898438 -49.023438 40.140625 -48.109375 C 41.390625 -47.191406 42.363281 -45.925781 43.0625 -44.3125 C 43.769531 -42.695312 44.1875 -40.769531 44.3125 -38.53125 C 44.4375 -36.300781 44.128906 -33.859375 43.390625 -31.203125 L 42.015625 -25.734375 C 41.597656 -23.992188 41.078125 -21.941406 40.453125 -19.578125 C 39.835938 -17.210938 39.078125 -14.625 38.171875 -11.8125 C 37.671875 -9.988281 37.484375 -8.410156 37.609375 -7.078125 C 37.734375 -5.753906 38.539062 -5.09375 40.03125 -5.09375 C 41.519531 -5.09375 43.40625 -6.003906 45.6875 -7.828125 C 47.96875 -9.648438 50.265625 -11.847656 52.578125 -14.421875 C 54.898438 -16.992188 57.097656 -19.625 59.171875 -22.3125 C 61.242188 -25.007812 62.816406 -27.1875 63.890625 -28.84375 C 64.640625 -29.914062 65.34375 -30.617188 66 -30.953125 C 66.664062 -31.285156 67.1875 -31.328125 67.5625 -31.078125 C 67.9375 -30.828125 68.125 -30.265625 68.125 -29.390625 C 68.125 -28.523438 67.789062 -27.429688 67.125 -26.109375 C 66.550781 -24.941406 65.660156 -23.40625 64.453125 -21.5 C 63.253906 -19.59375 61.828125 -17.5625 60.171875 -15.40625 C 58.515625 -13.257812 56.734375 -11.085938 54.828125 -8.890625 C 52.921875 -6.691406 50.929688 -4.703125 48.859375 -2.921875 C 46.785156 -1.140625 44.734375 0.304688 42.703125 1.421875 C 40.671875 2.546875 38.742188 3.109375 36.921875 3.109375 Z M 36.921875 3.109375 "/></g></g><g style="fill:#211c01;fill-opacity:1;"><g transform="translate(218.008351, 218.866678)"><path style="stroke:none" d="M 20.515625 -42.265625 C 16.285156 -42.265625 12.863281 -42.71875 10.25 -43.625 C 7.644531 -44.539062 5.882812 -45.703125 4.96875 -47.109375 C 4.550781 -47.691406 4.175781 -48.5625 3.84375 -49.71875 C 3.519531 -50.882812 3.648438 -52.171875 4.234375 -53.578125 C 5.390625 -52.671875 6.648438 -51.988281 8.015625 -51.53125 C 9.378906 -51.070312 10.644531 -50.757812 11.8125 -50.59375 C 13.21875 -50.34375 14.582031 -50.21875 15.90625 -50.21875 C 18.394531 -50.21875 20.820312 -50.425781 23.1875 -50.84375 C 25.550781 -51.257812 27.890625 -51.835938 30.203125 -52.578125 C 31.203125 -57.554688 32.175781 -62.035156 33.125 -66.015625 C 34.082031 -69.992188 35.179688 -73.222656 36.421875 -75.703125 C 37.742188 -78.441406 39.128906 -80.90625 40.578125 -83.09375 C 42.035156 -85.289062 43.65625 -87.15625 45.4375 -88.6875 C 47.21875 -90.226562 49.1875 -91.410156 51.34375 -92.234375 C 53.5 -93.066406 55.984375 -93.484375 58.796875 -93.484375 C 60.867188 -93.484375 62.503906 -93.066406 63.703125 -92.234375 C 64.910156 -91.410156 65.820312 -90.375 66.4375 -89.125 C 67.0625 -87.882812 67.4375 -86.539062 67.5625 -85.09375 C 67.6875 -83.644531 67.75 -82.296875 67.75 -81.046875 C 67.75 -78.316406 67.082031 -75.332031 65.75 -72.09375 C 64.425781 -68.863281 62.5625 -65.675781 60.15625 -62.53125 C 57.757812 -59.382812 54.882812 -56.398438 51.53125 -53.578125 C 48.175781 -50.765625 44.425781 -48.445312 40.28125 -46.625 C 38.875 -41.144531 37.484375 -35.734375 36.109375 -30.390625 C 34.742188 -25.046875 33.398438 -20.632812 32.078125 -17.15625 C 30.910156 -13.925781 29.4375 -10.320312 27.65625 -6.34375 C 25.875 -2.363281 23.703125 1.445312 21.140625 5.09375 C 22.710938 6.09375 24.304688 7.128906 25.921875 8.203125 C 27.535156 9.285156 29.171875 10.257812 30.828125 11.125 C 32.484375 12 34.160156 12.722656 35.859375 13.296875 C 37.554688 13.878906 39.359375 14.171875 41.265625 14.171875 C 43.253906 14.085938 45.203125 13.796875 47.109375 13.296875 C 48.765625 12.890625 50.503906 12.207031 52.328125 11.25 C 54.160156 10.300781 55.863281 8.953125 57.4375 7.203125 C 58.007812 8.203125 58.191406 9.695312 57.984375 11.6875 C 57.785156 13.675781 57.144531 15.664062 56.0625 17.65625 C 54.988281 19.644531 53.457031 21.382812 51.46875 22.875 C 49.476562 24.363281 46.988281 25.109375 44 25.109375 C 40.851562 25.109375 37.910156 24.671875 35.171875 23.796875 C 32.441406 22.929688 29.875 21.875 27.46875 20.625 C 25.070312 19.382812 22.816406 18.039062 20.703125 16.59375 C 18.585938 15.144531 16.617188 13.800781 14.796875 12.5625 C 12.304688 14.957031 9.566406 16.898438 6.578125 18.390625 C 3.597656 19.890625 0.285156 20.640625 -3.359375 20.640625 C -6.253906 20.640625 -8.570312 19.828125 -10.3125 18.203125 C -12.050781 16.585938 -12.84375 14.414062 -12.6875 11.6875 C -12.601562 10.6875 -12.3125 9.503906 -11.8125 8.140625 C -11.3125 6.773438 -10.378906 5.46875 -9.015625 4.21875 C -7.648438 2.976562 -5.765625 1.921875 -3.359375 1.046875 C -0.953125 0.179688 2.15625 -0.25 5.96875 -0.25 C 7.375 -0.25 8.71875 -0.101562 10 0.1875 C 11.289062 0.476562 12.554688 0.832031 13.796875 1.25 C 14.710938 -0.414062 15.625 -2.320312 16.53125 -4.46875 C 17.445312 -6.625 18.441406 -9.070312 19.515625 -11.8125 C 21.421875 -17.03125 23.078125 -22.269531 24.484375 -27.53125 C 25.898438 -32.789062 27.101562 -37.910156 28.09375 -42.890625 C 26.9375 -42.640625 25.710938 -42.472656 24.421875 -42.390625 C 23.140625 -42.304688 21.835938 -42.265625 20.515625 -42.265625 Z M -0.125 13.921875 C 0.945312 13.503906 2.1875 13.085938 3.59375 12.671875 C 5.007812 12.265625 6.628906 11.109375 8.453125 9.203125 C 7.210938 8.785156 6.257812 8.578125 5.59375 8.578125 C 2.613281 8.578125 0.441406 9.007812 -0.921875 9.875 C -2.296875 10.75 -2.984375 11.601562 -2.984375 12.4375 C -2.984375 13.007812 -2.734375 13.441406 -2.234375 13.734375 C -1.734375 14.023438 -1.03125 14.085938 -0.125 13.921875 Z M 46.859375 -72.59375 C 46.453125 -71.351562 45.914062 -69.53125 45.25 -67.125 C 44.582031 -64.726562 43.878906 -61.953125 43.140625 -58.796875 C 47.609375 -61.703125 51.191406 -65.019531 53.890625 -68.75 C 56.585938 -72.476562 57.9375 -76.207031 57.9375 -79.9375 C 57.9375 -82.175781 57.269531 -83.296875 55.9375 -83.296875 C 54.78125 -83.296875 53.289062 -82.398438 51.46875 -80.609375 C 49.644531 -78.828125 48.109375 -76.15625 46.859375 -72.59375 Z M 46.859375 -72.59375 "/></g></g><g style="fill:#211c01;fill-opacity:1;"><g transform="translate(275.567533, 218.866678)"><path style="stroke:none" d="M 36.796875 -19.765625 C 35.960938 -16.617188 34.84375 -13.675781 33.4375 -10.9375 C 32.03125 -8.207031 30.351562 -5.847656 28.40625 -3.859375 C 26.457031 -1.867188 24.257812 -0.316406 21.8125 0.796875 C 19.375 1.921875 16.703125 2.484375 13.796875 2.484375 C 10.398438 2.484375 7.726562 1.757812 5.78125 0.3125 C 3.832031 -1.132812 2.378906 -2.9375 1.421875 -5.09375 C 0.472656 -7.25 -0.101562 -9.609375 -0.3125 -12.171875 C -0.519531 -14.742188 -0.625 -17.148438 -0.625 -19.390625 C -0.625 -20.960938 -0.4375 -22.703125 -0.0625 -24.609375 C 0.3125 -26.515625 0.828125 -28.460938 1.484375 -30.453125 C 2.148438 -32.441406 3 -34.429688 4.03125 -36.421875 C 5.070312 -38.410156 6.296875 -40.234375 7.703125 -41.890625 C 8.203125 -43.296875 8.96875 -44.535156 10 -45.609375 C 11.039062 -46.691406 12.242188 -47.585938 13.609375 -48.296875 C 14.972656 -49.003906 16.441406 -49.539062 18.015625 -49.90625 C 19.597656 -50.28125 21.132812 -50.46875 22.625 -50.46875 C 22.875 -50.46875 23.101562 -50.425781 23.3125 -50.34375 C 23.519531 -50.257812 23.75 -50.175781 24 -50.09375 C 25.070312 -50.007812 26.414062 -49.59375 28.03125 -48.84375 C 29.644531 -48.101562 31.21875 -46.988281 32.75 -45.5 C 34.289062 -44.007812 35.597656 -42.125 36.671875 -39.84375 C 37.742188 -37.5625 38.28125 -34.804688 38.28125 -31.578125 C 38.28125 -30.910156 38.238281 -30.097656 38.15625 -29.140625 C 38.082031 -28.191406 38.003906 -27.390625 37.921875 -26.734375 C 39.828125 -27.472656 41.8125 -28.378906 43.875 -29.453125 C 45.945312 -30.535156 47.957031 -31.675781 49.90625 -32.875 C 51.851562 -34.082031 53.65625 -35.304688 55.3125 -36.546875 C 56.976562 -37.785156 58.304688 -38.90625 59.296875 -39.90625 C 60.128906 -40.644531 60.832031 -41.054688 61.40625 -41.140625 C 61.988281 -41.222656 62.40625 -41.054688 62.65625 -40.640625 C 62.90625 -40.234375 62.945312 -39.65625 62.78125 -38.90625 C 62.613281 -38.164062 62.15625 -37.335938 61.40625 -36.421875 C 61 -35.921875 59.941406 -34.925781 58.234375 -33.4375 C 56.535156 -31.945312 54.523438 -30.332031 52.203125 -28.59375 C 49.890625 -26.851562 47.363281 -25.15625 44.625 -23.5 C 41.894531 -21.84375 39.285156 -20.597656 36.796875 -19.765625 Z M 15.78125 -38.65625 C 15.539062 -37.914062 15.421875 -37.128906 15.421875 -36.296875 C 15.421875 -34.972656 15.5 -33.582031 15.65625 -32.125 C 15.820312 -30.675781 16.238281 -29.375 16.90625 -28.21875 C 17.570312 -27.0625 18.628906 -26.085938 20.078125 -25.296875 C 21.523438 -24.503906 23.535156 -24.109375 26.109375 -24.109375 C 26.523438 -24.109375 26.9375 -24.128906 27.34375 -24.171875 C 27.757812 -24.210938 28.175781 -24.273438 28.59375 -24.359375 C 28.84375 -25.441406 29.070312 -26.414062 29.28125 -27.28125 C 29.488281 -28.15625 29.59375 -28.925781 29.59375 -29.59375 C 29.75 -31.164062 29.742188 -32.78125 29.578125 -34.4375 C 29.421875 -36.09375 29.113281 -37.601562 28.65625 -38.96875 C 28.195312 -40.332031 27.613281 -41.453125 26.90625 -42.328125 C 26.207031 -43.203125 25.359375 -43.640625 24.359375 -43.640625 C 22.785156 -43.640625 21.273438 -43.203125 19.828125 -42.328125 C 18.378906 -41.453125 17.03125 -40.226562 15.78125 -38.65625 Z M 7.828125 -16.78125 C 7.828125 -15.289062 7.910156 -13.816406 8.078125 -12.359375 C 8.242188 -10.910156 8.578125 -9.628906 9.078125 -8.515625 C 9.578125 -7.398438 10.238281 -6.488281 11.0625 -5.78125 C 11.894531 -5.070312 12.972656 -4.71875 14.296875 -4.71875 C 15.785156 -4.71875 17.148438 -5.070312 18.390625 -5.78125 C 19.640625 -6.488281 20.757812 -7.398438 21.75 -8.515625 C 22.75 -9.628906 23.640625 -10.910156 24.421875 -12.359375 C 25.210938 -13.816406 25.898438 -15.332031 26.484375 -16.90625 C 25.898438 -16.820312 25.335938 -16.757812 24.796875 -16.71875 C 24.265625 -16.675781 23.664062 -16.65625 23 -16.65625 C 19.851562 -16.65625 17.140625 -17.585938 14.859375 -19.453125 C 12.578125 -21.316406 10.816406 -23.703125 9.578125 -26.609375 C 9.078125 -24.867188 8.660156 -23.164062 8.328125 -21.5 C 7.992188 -19.84375 7.828125 -18.269531 7.828125 -16.78125 Z M 7.828125 -16.78125 "/></g></g><g style="fill:#211c01;fill-opacity:1;"><g transform="translate(320.571674, 218.866678)"><path style="stroke:none" d="M 45.875 -31.453125 C 46.207031 -31.953125 46.640625 -32.257812 47.171875 -32.375 C 47.710938 -32.5 48.148438 -32.4375 48.484375 -32.1875 C 48.816406 -31.945312 49.003906 -31.535156 49.046875 -30.953125 C 49.085938 -30.367188 48.859375 -29.582031 48.359375 -28.59375 C 46.703125 -25.445312 44.523438 -22.046875 41.828125 -18.390625 C 39.140625 -14.742188 36.300781 -11.328125 33.3125 -8.140625 C 30.332031 -4.953125 27.429688 -2.320312 24.609375 -0.25 C 21.796875 1.820312 19.4375 2.859375 17.53125 2.859375 C 14.789062 2.859375 12.507812 2.316406 10.6875 1.234375 C 8.863281 0.160156 7.429688 -1.160156 6.390625 -2.734375 C 5.359375 -4.304688 4.632812 -6.023438 4.21875 -7.890625 C 3.8125 -9.753906 3.691406 -11.472656 3.859375 -13.046875 C 3.941406 -14.378906 4.226562 -16.765625 4.71875 -20.203125 C 5.21875 -23.640625 5.878906 -27.613281 6.703125 -32.125 C 7.535156 -36.644531 8.46875 -41.492188 9.5 -46.671875 C 10.539062 -51.859375 11.640625 -56.851562 12.796875 -61.65625 C 11.390625 -61.488281 9.984375 -61.320312 8.578125 -61.15625 C 7.171875 -60.988281 5.882812 -60.90625 4.71875 -60.90625 C 2.070312 -60.90625 -0.429688 -61.21875 -2.796875 -61.84375 C -5.160156 -62.46875 -6.921875 -63.070312 -8.078125 -63.65625 C -8.742188 -63.976562 -9.035156 -64.453125 -8.953125 -65.078125 C -8.867188 -65.703125 -8.617188 -66.320312 -8.203125 -66.9375 C -7.785156 -67.5625 -7.265625 -68.101562 -6.640625 -68.5625 C -6.023438 -69.019531 -5.46875 -69.25 -4.96875 -69.25 C -3.394531 -69.082031 -1.695312 -68.9375 0.125 -68.8125 C 1.945312 -68.6875 3.9375 -68.664062 6.09375 -68.75 C 7.664062 -68.832031 9.175781 -68.953125 10.625 -69.109375 C 12.070312 -69.273438 13.503906 -69.484375 14.921875 -69.734375 C 15.992188 -73.710938 17.046875 -77.171875 18.078125 -80.109375 C 19.117188 -83.054688 20.054688 -85.113281 20.890625 -86.28125 C 21.128906 -86.6875 21.6875 -87.035156 22.5625 -87.328125 C 23.4375 -87.617188 24.367188 -87.828125 25.359375 -87.953125 C 26.359375 -88.078125 27.3125 -88.078125 28.21875 -87.953125 C 29.132812 -87.828125 29.796875 -87.515625 30.203125 -87.015625 C 30.617188 -86.359375 30.785156 -84.660156 30.703125 -81.921875 C 30.617188 -79.179688 30.164062 -75.703125 29.34375 -71.484375 C 32.820312 -71.484375 35.90625 -71.296875 38.59375 -70.921875 C 41.289062 -70.546875 43.59375 -70.128906 45.5 -69.671875 C 47.40625 -69.222656 48.9375 -68.769531 50.09375 -68.3125 C 51.257812 -67.851562 52.128906 -67.539062 52.703125 -67.375 C 53.285156 -67.207031 53.597656 -66.789062 53.640625 -66.125 C 53.679688 -65.46875 53.554688 -64.785156 53.265625 -64.078125 C 52.972656 -63.378906 52.492188 -62.78125 51.828125 -62.28125 C 51.171875 -61.78125 50.425781 -61.613281 49.59375 -61.78125 C 48.769531 -61.863281 47.835938 -62.03125 46.796875 -62.28125 C 45.765625 -62.53125 44.523438 -62.738281 43.078125 -62.90625 C 41.628906 -63.070312 39.910156 -63.238281 37.921875 -63.40625 C 35.929688 -63.570312 33.609375 -63.65625 30.953125 -63.65625 C 30.453125 -63.65625 29.890625 -63.632812 29.265625 -63.59375 C 28.648438 -63.550781 28.007812 -63.53125 27.34375 -63.53125 C 27.019531 -62.195312 26.710938 -60.890625 26.421875 -59.609375 C 26.128906 -58.328125 25.734375 -56.976562 25.234375 -55.5625 C 24.160156 -52.25 22.914062 -48.644531 21.5 -44.75 C 20.257812 -41.351562 18.769531 -37.457031 17.03125 -33.0625 C 15.289062 -28.675781 13.34375 -23.992188 11.1875 -19.015625 C 10.6875 -15.453125 10.75 -12.738281 11.375 -10.875 C 12 -9.007812 12.765625 -7.664062 13.671875 -6.84375 C 14.753906 -5.925781 16.082031 -5.425781 17.65625 -5.34375 C 18.894531 -5.175781 20.40625 -5.609375 22.1875 -6.640625 C 23.96875 -7.679688 25.8125 -9.070312 27.71875 -10.8125 C 29.625 -12.550781 31.550781 -14.457031 33.5 -16.53125 C 35.445312 -18.601562 37.25 -20.632812 38.90625 -22.625 C 40.5625 -24.613281 42.007812 -26.414062 43.25 -28.03125 C 44.5 -29.644531 45.375 -30.785156 45.875 -31.453125 Z M 45.875 -31.453125 "/></g></g></g></svg>